<svg xmlns="http://www.w3.org/2000/svg" width="26pt" height="26pt" viewBox="0 0 26 26"><path d="M23.563 1.625H2.438A2.44 2.44 0 000 4.063v17.875a2.44 2.44 0 002.438 2.437h21.125A2.44 2.44 0 0026 21.937V4.063a2.44 2.44 0 00-2.438-2.437zm0 20.008a.305.305 0 01-.305.305H2.742a.305.305 0 01-.304-.305V4.367c0-.168.136-.304.304-.304h20.516c.168 0 .305.136.305.304zm-5.461-11.75L14.984 13l3.118 3.117a.608.608 0 010 .856l-1.13 1.129a.608.608 0 01-.855 0L13 14.984l-3.117 3.118a.608.608 0 01-.856 0l-1.132-1.13a.616.616 0 010-.855L11.015 13l-3.12-3.117a.616.616 0 010-.856l1.132-1.132a.616.616 0 01.856 0L13 11.015l3.117-3.12a.616.616 0 01.856 0l1.129 1.132a.594.594 0 010 .856zm0 0" id="surface1"/></svg>